<svg width="265" height="66" viewBox="0 0 265 66" fill="none" xmlns="http://www.w3.org/2000/svg">
<path d="M67.8636 46.4943C75.2273 46.4943 79.7955 42.2159 80.017 35.7386H72.2273C71.9205 38.517 70.25 40.0341 67.9659 40.0341C65.0341 40.0341 63.125 37.5625 63.125 32.9091C63.125 28.2898 65.0511 25.8182 67.9659 25.8182C70.3523 25.8182 71.9034 27.4375 72.2273 30.1136H80.017C79.8295 23.6705 75.125 19.4773 67.8466 19.4773C59.6136 19.4773 54.6364 24.9659 54.6364 32.9943C54.6364 40.9886 59.5795 46.4943 67.8636 46.4943ZM84.2827 46H92.6179V31.7841C92.6179 28.6648 94.8338 26.5682 97.8168 26.5682C98.8054 26.5682 100.288 26.7386 101.089 27.0114V19.767C100.391 19.5795 99.5213 19.4602 98.7543 19.4602C95.8906 19.4602 93.6065 21.1307 92.652 24.5909H92.3793V19.8182H84.2827V46ZM110.379 55.8182C116.379 55.8182 119.362 52.7841 120.811 48.5057L130.68 19.8352L121.902 19.8182L117.01 38.5H116.737L111.913 19.8182H103.186L112.493 46.9545L112.169 47.7386C111.368 49.6989 109.561 49.733 107.107 48.9318L105.266 54.983C106.527 55.4943 108.385 55.8182 110.379 55.8182ZM133.876 55.8182H142.212V41.7557H142.382C143.439 44.1761 145.791 46.375 149.746 46.375C155.541 46.375 160.212 41.8409 160.212 32.9261C160.212 23.6875 155.268 19.4773 149.797 19.4773C145.655 19.4773 143.388 21.8977 142.382 24.3011H142.126V19.8182H133.876V55.8182ZM142.041 32.9091C142.041 28.6307 143.814 25.9886 146.865 25.9886C149.95 25.9886 151.655 28.6989 151.655 32.9091C151.655 37.1364 149.95 39.8807 146.865 39.8807C143.814 39.8807 142.041 37.1534 142.041 32.9091ZM179.358 19.8182H174.636V13.5455H166.301V19.8182H162.841V25.9545H166.301V38.6875C166.25 43.9886 169.693 46.6477 175.574 46.375C177.585 46.2727 179.034 45.8636 179.835 45.625L178.574 39.608C178.216 39.6932 177.381 39.8636 176.75 39.8636C175.403 39.8636 174.636 39.3182 174.636 37.767V25.9545H179.358V19.8182ZM195.551 46.4943C203.784 46.4943 208.778 41.0568 208.778 32.9943C208.778 24.9148 203.784 19.4773 195.551 19.4773C187.318 19.4773 182.324 24.9148 182.324 32.9943C182.324 41.0568 187.318 46.4943 195.551 46.4943ZM195.602 40.2045C192.517 40.2045 190.812 37.2727 190.812 32.9432C190.812 28.5966 192.517 25.6477 195.602 25.6477C198.585 25.6477 200.29 28.5966 200.29 32.9432C200.29 37.2727 198.585 40.2045 195.602 40.2045ZM217.378 46H226.31L230.401 30.7443H230.69L234.781 46H243.696L250.531 19.8182H242.162L238.736 36.4716H238.514L234.628 19.8182H226.463L222.679 36.5909H222.457L218.929 19.8182H210.56L217.378 46ZM262.212 11.0909H253.876V46H262.212V11.0909Z" fill="white"/>
<path d="M-4.76837e-07 57V54.3044H7.79808V22.4554C7.79808 19.8177 8.69463 17.3857 10.1983 15.4472C8.02224 15.138 6.34324 13.2635 6.34324 11.0032H9.03855C9.03855 11.9924 9.84328 12.7972 10.8324 12.7972H12.1726C12.4678 12.7972 12.7605 12.8078 13.0505 12.8286C14.839 11.6722 16.9685 11 19.2522 11H26.7492C29.0328 11 31.1623 11.6722 32.9508 12.8286C33.2408 12.8078 33.5336 12.7972 33.8288 12.7972H35.169C36.1581 12.7972 36.9628 11.9924 36.9628 11.0032H39.6581C39.6581 13.2635 37.9791 15.138 35.8031 15.4472C37.3068 17.3857 38.2034 19.8177 38.2034 22.4554V35.6718C38.2034 41.3688 35.9851 46.7248 31.9572 50.7531C30.5448 52.1656 28.9689 53.3546 27.2726 54.3044H46V57H-4.76837e-07ZM10.4934 48.127C12.4653 47.5441 13.9087 45.7174 13.9087 43.5589V41.2104H16.604V43.5589C16.604 47.2115 13.9645 50.2572 10.4934 50.8937V54.2198C15.757 53.555 19.841 49.0496 19.841 43.608V35.9793C16.0236 35.5386 12.6819 33.5133 10.4934 30.5788V48.127ZM26.7492 13.6956H19.2523C18.5726 13.6956 17.9108 13.7734 17.2752 13.9207C19.7384 15.0625 21.7593 17.0028 23.0007 19.4089C24.2422 17.0028 26.263 15.0625 28.7262 13.9207C28.0906 13.7734 27.4288 13.6956 26.7492 13.6956ZM32.2304 15.6283C27.7614 16.3904 24.3484 20.2909 24.3484 24.9742V28.1045H21.6531V24.9742C21.6531 20.2909 18.2401 16.3904 13.7711 15.6283C11.774 17.2352 10.4934 19.6983 10.4934 22.4554C10.4934 28.4765 15.3913 33.3748 21.4117 33.3748H24.5897C30.6101 33.3748 35.508 28.4764 35.508 22.4554C35.508 19.6983 34.2274 17.2352 32.2304 15.6283ZM35.508 35.6718V30.5788C33.024 33.9096 29.0545 36.0704 24.5897 36.0704H22.5363V43.608C22.5363 47.9715 20.4386 51.8537 17.199 54.3004C27.3241 54.1279 35.508 45.8383 35.508 35.6718Z" fill="white"/>
<path d="M18.5505 25.2503C17.3083 25.2503 16.2977 24.2398 16.2977 22.9976C16.2977 21.7553 17.3083 20.7447 18.5505 20.7447C19.7927 20.7447 20.8033 21.7553 20.8033 22.9976C20.8033 24.2398 19.7927 25.2503 18.5505 25.2503Z" fill="white"/>
<path d="M31.2842 25.2503C30.042 25.2503 29.0314 24.2398 29.0314 22.9976C29.0314 21.7553 30.042 20.7447 31.2842 20.7447C32.5264 20.7447 33.537 21.7553 33.537 22.9976C33.537 24.2398 32.5264 25.2503 31.2842 25.2503Z" fill="white"/>
</svg>
